<svg width="247" height="48" viewBox="0 0 247 48" fill="none" xmlns="http://www.w3.org/2000/svg">
<path d="M3.52273 39V9.90909H20.9659V13.0341H7.04545V22.8636H19.6591V25.9886H7.04545V39H3.52273ZM34.522 9.90909V39H30.9993V9.90909H34.522ZM68.6534 9.90909V39H65.2443L49.392 16.1591H49.108V39H45.5852V9.90909H48.9943L64.9034 32.8068H65.1875V9.90909H68.6534ZM80.8956 39H77.2024L87.8842 9.90909H91.5206L102.202 39H98.5092L89.8161 14.5114H89.5888L80.8956 39ZM82.2592 27.6364H97.1456V30.7614H82.2592V27.6364ZM133.802 9.90909V39H130.393L114.54 16.1591H114.256V39H110.734V9.90909H114.143L130.052 32.8068H130.336V9.90909H133.802ZM168.26 19H164.737C164.529 17.9867 164.164 17.0966 163.643 16.3295C163.132 15.5625 162.507 14.9186 161.768 14.3977C161.039 13.8674 160.23 13.4697 159.339 13.2045C158.449 12.9394 157.521 12.8068 156.555 12.8068C154.794 12.8068 153.198 13.2519 151.768 14.142C150.348 15.0322 149.216 16.3438 148.374 18.0767C147.54 19.8097 147.124 21.9356 147.124 24.4545C147.124 26.9735 147.54 29.0994 148.374 30.8324C149.216 32.5653 150.348 33.8769 151.768 34.767C153.198 35.6572 154.794 36.1023 156.555 36.1023C157.521 36.1023 158.449 35.9697 159.339 35.7045C160.23 35.4394 161.039 35.0464 161.768 34.5256C162.507 33.9953 163.132 33.3466 163.643 32.5795C164.164 31.803 164.529 30.9129 164.737 29.9091H168.26C167.995 31.3958 167.512 32.7263 166.811 33.9006C166.11 35.0748 165.239 36.0739 164.197 36.8977C163.156 37.7121 161.986 38.3324 160.689 38.7585C159.401 39.1847 158.023 39.3977 156.555 39.3977C154.074 39.3977 151.868 38.7917 149.936 37.5795C148.004 36.3674 146.484 34.6439 145.376 32.4091C144.268 30.1742 143.714 27.5227 143.714 24.4545C143.714 21.3864 144.268 18.7348 145.376 16.5C146.484 14.2652 148.004 12.5417 149.936 11.3295C151.868 10.1174 154.074 9.51136 156.555 9.51136C158.023 9.51136 159.401 9.72443 160.689 10.1506C161.986 10.5767 163.156 11.2017 164.197 12.0256C165.239 12.84 166.11 13.8343 166.811 15.0085C167.512 16.1733 167.995 17.5038 168.26 19ZM177.952 39V9.90909H195.509V13.0341H181.475V22.8636H194.6V25.9886H181.475V35.875H195.737V39H177.952Z" fill="#3D5FD9"/>
<path opacity="0.25" d="M217 40.3333H210.333C209.891 40.3333 209.467 40.1577 209.155 39.8452C208.842 39.5326 208.667 39.1087 208.667 38.6667V25.3333C208.667 24.8913 208.842 24.4674 209.155 24.1548C209.467 23.8423 209.891 23.6667 210.333 23.6667H217C217.442 23.6667 217.866 23.8423 218.179 24.1548C218.491 24.4674 218.667 24.8913 218.667 25.3333V38.6667C218.667 39.1087 218.491 39.5326 218.179 39.8452C217.866 40.1577 217.442 40.3333 217 40.3333Z" fill="#BAC9FF"/>
<path d="M230.333 40.3333H223.667C223.225 40.3333 222.801 40.1577 222.488 39.8452C222.176 39.5326 222 39.1087 222 38.6667V5.33332C222 4.8913 222.176 4.46737 222.488 4.15481C222.801 3.84225 223.225 3.66666 223.667 3.66666H230.333C230.775 3.66666 231.199 3.84225 231.512 4.15481C231.824 4.46737 232 4.8913 232 5.33332V38.6667C232 39.1087 231.824 39.5326 231.512 39.8452C231.199 40.1577 230.775 40.3333 230.333 40.3333Z" fill="#2347C5"/>
<path opacity="0.5" d="M243.667 40.3333H237C236.558 40.3333 236.134 40.1577 235.821 39.8452C235.509 39.5326 235.333 39.1087 235.333 38.6667V18.6667C235.333 18.2246 235.509 17.8007 235.821 17.4882C236.134 17.1756 236.558 17 237 17H243.667C244.109 17 244.533 17.1756 244.845 17.4882C245.158 17.8007 245.333 18.2246 245.333 18.6667V38.6667C245.333 39.1087 245.158 39.5326 244.845 39.8452C244.533 40.1577 244.109 40.3333 243.667 40.3333Z" fill="#3D5FD9"/>
</svg>
